<svg xmlns="http://www.w3.org/2000/svg" width="640.002" height="512" viewBox="0 0 640.002 512">
  <path id="chalkboard-teacher-solid" d="M208,352a22.878,22.878,0,0,0-7.06,1.09A131.914,131.914,0,0,1,160,360a132.027,132.027,0,0,1-40.95-6.91A22.816,22.816,0,0,0,112,352,112.007,112.007,0,0,0,0,464.62C.14,490.88,21.73,512,48,512H272c26.27,0,47.86-21.12,48-47.38A112.007,112.007,0,0,0,208,352Zm-48-32a96,96,0,1,0-96-96A96,96,0,0,0,160,320ZM592,0H208c-26.47,0-48,22.25-48,49.59V96c23.42,0,45.1,6.78,64,17.8V64H576V352H512V288H384v64H307.76a127.451,127.451,0,0,1,39.69,64H592c26.47,0,48-22.25,48-49.59V49.59C640,22.25,618.47,0,592,0Z" transform="translate(0.002)" fill="#75b6bc"/>
</svg>
